<svg width="22" height="22" viewBox="0 0 22 22" fill="none" xmlns="http://www.w3.org/2000/svg">
<path d="M18.3334 3.20833V8.03C18.3328 8.7591 18.0426 9.4581 17.5267 9.97333L15.8492 11.6508C15.6799 11.8216 15.5844 12.052 15.5834 12.2925V18.7917C15.5834 18.9132 15.5351 19.0298 15.4492 19.1158C15.3632 19.2017 15.2466 19.25 15.1251 19.25H13.2917C13.1702 19.25 13.0536 19.2017 12.9677 19.1158C12.8817 19.0298 12.8334 18.9132 12.8334 18.7917V15.0425C12.8324 14.802 12.7369 14.5716 12.5676 14.4008L12.1826 14.0158C12.0118 13.8465 11.7814 13.751 11.5409 13.75H10.4592C10.2188 13.751 9.98832 13.8465 9.81758 14.0158L9.43258 14.4008C9.26323 14.5716 9.16776 14.802 9.16675 15.0425V18.7917C9.16675 18.9132 9.11846 19.0298 9.03251 19.1158C8.94655 19.2017 8.82997 19.25 8.70841 19.25H6.87508C6.75352 19.25 6.63695 19.2017 6.55099 19.1158C6.46504 19.0298 6.41675 18.9132 6.41675 18.7917V12.2925C6.41574 12.052 6.32026 11.8216 6.15091 11.6508L4.47341 9.97333C3.95754 9.4581 3.66739 8.7591 3.66675 8.03V3.20833C3.66675 3.08678 3.71504 2.9702 3.80099 2.88424C3.88695 2.79829 4.00352 2.75 4.12508 2.75H5.95841C6.07997 2.75 6.19655 2.79829 6.28251 2.88424C6.36846 2.9702 6.41675 3.08678 6.41675 3.20833V5.04167C6.41675 5.16322 6.46504 5.2798 6.55099 5.36576C6.63695 5.45171 6.75352 5.5 6.87508 5.5H8.70841C8.82997 5.5 8.94655 5.45171 9.03251 5.36576C9.11846 5.2798 9.16675 5.16322 9.16675 5.04167V3.20833C9.16675 3.08678 9.21504 2.9702 9.30099 2.88424C9.38694 2.79829 9.50352 2.75 9.62508 2.75H12.3751C12.4966 2.75 12.6132 2.79829 12.6992 2.88424C12.7851 2.9702 12.8334 3.08678 12.8334 3.20833V5.04167C12.8334 5.16322 12.8817 5.2798 12.9677 5.36576C13.0536 5.45171 13.1702 5.5 13.2917 5.5H15.1251C15.2466 5.5 15.3632 5.45171 15.4492 5.36576C15.5351 5.2798 15.5834 5.16322 15.5834 5.04167V3.20833C15.5834 3.08678 15.6317 2.9702 15.7177 2.88424C15.8036 2.79829 15.9202 2.75 16.0417 2.75H17.8751C17.9966 2.75 18.1132 2.79829 18.1992 2.88424C18.2851 2.9702 18.3334 3.08678 18.3334 3.20833Z" fill="#4A0A52"/>
</svg>
