<svg width="22" height="22" viewBox="0 0 22 22" fill="none" xmlns="http://www.w3.org/2000/svg">
<path d="M3.20842 13.0533V16.8117C3.20385 16.8788 3.20385 16.9462 3.20842 17.0133L2.63092 16.445C2.3547 16.1466 2.14167 15.7955 2.00462 15.4127C1.86757 15.0299 1.80933 14.6234 1.83342 14.2175V10.4592C1.83342 8.71749 3.08926 7.52582 3.41926 5.65582L3.83176 3.28165C3.85404 3.16274 3.92244 3.05746 4.02204 2.98877C4.12163 2.92008 4.24435 2.89356 4.36342 2.91499C4.63101 2.95276 4.88153 3.06855 5.08369 3.24788C5.28585 3.42722 5.43068 3.66215 5.50009 3.92332C5.52774 4.04707 5.52774 4.1754 5.50009 4.29915L4.58342 9.66165C3.71568 10.5796 3.22486 11.7903 3.20842 13.0533ZM13.7501 2.48415C13.9227 2.31154 14.0197 2.07743 14.0197 1.83332C14.0197 1.58921 13.9227 1.3551 13.7501 1.18249C13.5775 1.00988 13.3434 0.912903 13.0993 0.912903C12.8551 0.912903 12.621 1.00988 12.4484 1.18249L8.78176 4.84915C9.2674 5.30089 9.57342 5.91293 9.64342 6.57249L13.7501 2.48415ZM18.6451 11.9992L16.8118 13.8325C16.7261 13.9165 16.6109 13.9635 16.4909 13.9635C16.371 13.9635 16.2558 13.9165 16.1701 13.8325C16.1271 13.7899 16.093 13.7392 16.0698 13.6833C16.0465 13.6275 16.0345 13.5676 16.0345 13.5071C16.0345 13.4466 16.0465 13.3867 16.0698 13.3308C16.093 13.275 16.1271 13.2243 16.1701 13.1817L19.9468 9.40499C20.1175 9.23324 20.2133 9.00091 20.2133 8.75874C20.2133 8.51657 20.1175 8.28424 19.9468 8.11249C19.8615 8.02657 19.7602 7.95837 19.6485 7.91184C19.5367 7.8653 19.4169 7.84134 19.2959 7.84134C19.1749 7.84134 19.0551 7.8653 18.9434 7.91184C18.8317 7.95837 18.7303 8.02657 18.6451 8.11249L14.8226 11.9167C14.7369 12.0006 14.6217 12.0477 14.5018 12.0477C14.3818 12.0477 14.2666 12.0006 14.1809 11.9167C14.138 11.874 14.1039 11.8234 14.0806 11.7675C14.0573 11.7116 14.0453 11.6517 14.0453 11.5912C14.0453 11.5307 14.0573 11.4708 14.0806 11.415C14.1039 11.3591 14.138 11.3084 14.1809 11.2658L19.0484 6.41665C19.2192 6.2449 19.315 6.01257 19.315 5.7704C19.315 5.52823 19.2192 5.2959 19.0484 5.12415C18.9632 5.03824 18.8618 4.97004 18.7501 4.9235C18.6384 4.87697 18.5186 4.85301 18.3976 4.85301C18.2766 4.85301 18.1568 4.87697 18.0451 4.9235C17.9334 4.97004 17.832 5.03824 17.7468 5.12415L12.8793 9.99165C12.7929 10.078 12.6759 10.1264 12.5538 10.1264C12.4318 10.1264 12.3147 10.078 12.2284 9.99165C12.1421 9.90535 12.0936 9.78829 12.0936 9.66624C12.0936 9.54418 12.1421 9.42713 12.2284 9.34082L16.5001 5.07832C16.5856 4.99285 16.6534 4.89139 16.6996 4.77972C16.7459 4.66805 16.7697 4.54836 16.7697 4.42749C16.7697 4.30662 16.7459 4.18693 16.6996 4.07526C16.6534 3.96359 16.5856 3.86212 16.5001 3.77665C16.4146 3.69118 16.3132 3.62339 16.2015 3.57713C16.0898 3.53088 15.9701 3.50707 15.8493 3.50707C15.7284 3.50707 15.6087 3.53088 15.497 3.57713C15.3854 3.62339 15.2839 3.69118 15.1984 3.77665L8.25009 10.6883V6.82915C8.24604 6.50963 8.13008 6.20164 7.92239 5.95878C7.71471 5.71593 7.42845 5.55358 7.11342 5.49999C6.99435 5.47856 6.87163 5.50508 6.77204 5.57377C6.67244 5.64246 6.60404 5.74774 6.58176 5.86665L6.16926 8.24999C5.83926 10.0833 4.58342 11.3117 4.58342 13.0533V16.8117C4.56055 17.2182 4.62024 17.6251 4.75887 18.0079C4.89751 18.3908 5.11223 18.7415 5.39009 19.0392L6.63676 20.2767C7.15199 20.7925 7.85099 21.0827 8.58009 21.0833H8.62592C9.55871 21.0817 10.4761 20.8453 11.2934 20.3958L14.1259 18.8192C14.4989 18.6105 14.8413 18.3514 15.1434 18.0492L19.9009 13.3008C20.0735 13.1282 20.1705 12.8941 20.1705 12.65C20.1705 12.4059 20.0735 12.1718 19.9009 11.9992C19.7283 11.8265 19.4942 11.7296 19.2501 11.7296C19.006 11.7296 18.7719 11.8265 18.5993 11.9992H18.6451Z" fill="#4A0A52"/>
</svg>
