<svg width="20" height="20" viewBox="0 0 20 20" fill="none" xmlns="http://www.w3.org/2000/svg">
    <path d="M17.5001 3.33331H12.5001C12.0262 3.33495 11.558 3.43763 11.1269 3.6345C10.6958 3.83137 10.3117 4.1179 10.0001 4.47498C9.68848 4.1179 9.30432 3.83137 8.87322 3.6345C8.44212 3.43763 7.974 3.33495 7.50008 3.33331H2.50008C2.27907 3.33331 2.06711 3.42111 1.91083 3.57739C1.75455 3.73367 1.66675 3.94563 1.66675 4.16665V15C1.66675 15.221 1.75455 15.433 1.91083 15.5892C2.06711 15.7455 2.27907 15.8333 2.50008 15.8333H7.15842C7.37703 15.8342 7.58653 15.921 7.74175 16.075L8.09175 16.425C8.24697 16.5789 8.45646 16.6657 8.67508 16.6666H11.3251C11.5437 16.6657 11.7532 16.5789 11.9084 16.425L12.2584 16.075C12.4136 15.921 12.6231 15.8342 12.8417 15.8333H17.5001C17.7211 15.8333 17.9331 15.7455 18.0893 15.5892C18.2456 15.433 18.3334 15.221 18.3334 15V4.16665C18.3334 3.94563 18.2456 3.73367 18.0893 3.57739C17.9331 3.42111 17.7211 3.33331 17.5001 3.33331ZM9.16675 13.7833C8.66035 13.4896 8.08551 13.3343 7.50008 13.3333H3.33341V4.99998H7.50008C7.94211 4.99998 8.36603 5.17557 8.67859 5.48813C8.99115 5.80069 9.16675 6.22462 9.16675 6.66665V13.7833ZM16.6667 13.3333H12.5001C11.9146 13.3343 11.3398 13.4896 10.8334 13.7833V6.66665C10.8334 6.22462 11.009 5.80069 11.3216 5.48813C11.6341 5.17557 12.0581 4.99998 12.5001 4.99998H16.6667V13.3333Z" fill="#4A0A52"/>
</svg>
