<svg width="16" height="16" viewBox="0 0 16 16" fill="none" xmlns="http://www.w3.org/2000/svg">
<path d="M11.2066 6.66662C11.2677 6.72893 11.3019 6.8127 11.3019 6.89995C11.3019 6.98721 11.2677 7.07098 11.2066 7.13329L5.83325 12.5266C5.70435 12.6567 5.55003 12.7588 5.37992 12.8266L2.48659 14C2.426 14.0243 2.35957 14.0304 2.29557 14.0174C2.23157 14.0043 2.17281 13.9728 2.12659 13.9266C2.0598 13.884 2.01037 13.819 1.98716 13.7433C1.96395 13.6675 1.96848 13.586 1.99992 13.5133L3.14659 10.62C3.2144 10.4498 3.31652 10.2955 3.44659 10.1666L8.82659 4.78662C8.85757 4.75538 8.89444 4.73058 8.93506 4.71366C8.97568 4.69673 9.01925 4.68802 9.06325 4.68802C9.10726 4.68802 9.15083 4.69673 9.19145 4.71366C9.23207 4.73058 9.26893 4.75538 9.29992 4.78662L11.2066 6.66662ZM13.7066 2.73329L13.2666 2.29329C13.0792 2.1057 12.825 2.00019 12.5599 1.99995H12.0533C11.9197 1.9983 11.7872 2.02341 11.6636 2.07379C11.5399 2.12417 11.4276 2.1988 11.3333 2.29329L10.1266 3.51329C10.0655 3.5756 10.0313 3.65937 10.0313 3.74662C10.0313 3.83387 10.0655 3.91764 10.1266 3.97995L11.9999 5.87995C12.0309 5.9112 12.0678 5.936 12.1084 5.95292C12.149 5.96984 12.1926 5.97855 12.2366 5.97855C12.2806 5.97855 12.3242 5.96984 12.3648 5.95292C12.4054 5.936 12.4423 5.9112 12.4733 5.87995L13.7066 4.66662C13.8011 4.57227 13.8757 4.45995 13.9261 4.3363C13.9765 4.21264 14.0016 4.08014 13.9999 3.94662V3.43995C13.9997 3.17483 13.8942 2.92064 13.7066 2.73329Z" fill="white"/>
</svg>
