<svg width="22" height="22" viewBox="0 0 22 22" fill="none" xmlns="http://www.w3.org/2000/svg">
<path d="M20.1666 9.09333V18.7917C20.1666 18.9132 20.1183 19.0298 20.0323 19.1158C19.9464 19.2017 19.8298 19.25 19.7083 19.25H19.0208C18.8992 19.25 18.7826 19.2017 18.6967 19.1158C18.6107 19.0298 18.5624 18.9132 18.5624 18.7917V10.6333L12.0174 15.345C11.7906 15.5001 11.5222 15.5832 11.2474 15.5833H10.7524C10.4776 15.5832 10.2093 15.5001 9.98242 15.345L2.03492 9.61583C1.97279 9.57481 1.92183 9.51898 1.88663 9.45338C1.85143 9.38778 1.83309 9.31445 1.83325 9.24V9.09333C1.83309 9.01888 1.85143 8.94556 1.88663 8.87995C1.92183 8.81435 1.97279 8.75852 2.03492 8.7175L9.98242 2.98833C10.2093 2.83324 10.4776 2.75018 10.7524 2.75H11.2474C11.5222 2.75018 11.7906 2.83324 12.0174 2.98833L19.9649 8.7175C20.0271 8.75852 20.078 8.81435 20.1132 8.87995C20.1484 8.94556 20.1668 9.01888 20.1666 9.09333ZM11.2474 17.1875H10.7524C10.1397 17.1834 9.54241 16.9949 9.03825 16.6467L5.49992 14.0892V15.5833C5.49992 17.6092 7.96575 19.25 10.9999 19.25C14.0341 19.25 16.4999 17.6092 16.4999 15.5833V14.0892L12.9249 16.665C12.431 17.0038 11.8464 17.1859 11.2474 17.1875Z" fill="#4A0A52"/>
</svg>
