<svg width="100%" height="100%" viewBox="0 0 24 24" fill="none" xmlns="http://www.w3.org/2000/svg">
<path d="M12 2C10.0222 2 8.08879 2.58649 6.4443 3.6853C4.79981 4.78412 3.51808 6.3459 2.76121 8.17316C2.00433 10.0004 1.8063 12.0111 2.19215 13.9509C2.578 15.8907 3.53041 17.6725 4.92893 19.0711C6.32746 20.4696 8.10929 21.422 10.0491 21.8079C11.9889 22.1937 13.9996 21.9957 15.8268 21.2388C17.6541 20.4819 19.2159 19.2002 20.3147 17.5557C21.4135 15.9112 22 13.9778 22 12C22 10.6868 21.7413 9.38642 21.2388 8.17316C20.7362 6.95991 19.9997 5.85752 19.0711 4.92893C18.1425 4.00035 17.0401 3.26375 15.8268 2.7612C14.6136 2.25866 13.3132 2 12 2ZM16.47 8.42L14.47 13.35C14.3695 13.5948 14.2213 13.8171 14.0342 14.0042C13.8471 14.1913 13.6248 14.3395 13.38 14.44L8.45 16.44C8.35934 16.4779 8.25937 16.4877 8.16307 16.4681C8.06677 16.4485 7.9786 16.4004 7.91 16.33L7.67 16.09C7.59963 16.0214 7.55151 15.9332 7.53189 15.8369C7.51228 15.7406 7.52207 15.6407 7.56 15.55L9.56 10.62C9.66055 10.3752 9.80866 10.1529 9.99577 9.96577C10.1829 9.77866 10.4052 9.63055 10.65 9.53L15.58 7.53C15.6707 7.49207 15.7706 7.48228 15.8669 7.50189C15.9632 7.52151 16.0514 7.56963 16.12 7.64L16.36 7.88C16.4304 7.9486 16.4785 8.03677 16.4981 8.13307C16.5177 8.22937 16.5079 8.32934 16.47 8.42Z" fill="black"/>
</svg>
