<svg width="24" height="24" viewBox="0 0 24 24" fill="none" xmlns="http://www.w3.org/2000/svg">
<path d="M17.1108 10.4823V11.293C17.1108 11.3531 17.0975 11.4125 17.0717 11.4668C17.046 11.5211 17.0085 11.569 16.962 11.607C16.9155 11.645 16.8611 11.6722 16.8028 11.6866C16.7445 11.701 16.6837 11.7022 16.6249 11.6902L14.8919 11.3416C14.3593 11.2287 13.8785 10.9439 13.5233 10.531L12.7134 9.62305L12.0575 13.425L13.2317 14.5437C13.462 14.7638 13.6249 15.045 13.7014 15.3544L14.7299 20.2913C14.7435 20.3503 14.7434 20.4117 14.7297 20.4707C14.716 20.5298 14.6889 20.5849 14.6506 20.6318C14.6123 20.6788 14.5638 20.7163 14.5087 20.7416C14.4537 20.7669 14.3936 20.7792 14.3331 20.7776H13.5233C13.4295 20.7792 13.3382 20.7476 13.2656 20.6882C13.193 20.6288 13.1437 20.5457 13.1265 20.4534L12.2033 15.9705C12.1704 15.8025 12.0854 15.6493 11.9603 15.5327L9.26359 12.9873C9.16592 12.8953 9.09259 12.7805 9.05019 12.6531C9.00778 12.5258 8.99763 12.3899 9.02064 12.2577L9.53893 9.25015L8.51855 9.9311C8.35729 10.0379 8.23951 10.1989 8.18652 10.3851L7.60345 12.436C7.57892 12.5202 7.52777 12.5942 7.45768 12.6468C7.38759 12.6994 7.30235 12.7279 7.21474 12.7279H6.40491C6.34205 12.7279 6.28005 12.7132 6.22383 12.6851C6.16761 12.6569 6.1187 12.6161 6.08098 12.5657C6.04327 12.5154 6.01778 12.4569 6.00653 12.395C5.99529 12.3331 5.9986 12.2694 6.0162 12.209L6.71264 9.64737C6.82272 9.27257 7.06428 8.95016 7.3929 8.73943L8.90727 7.72612C9.57018 7.28709 10.3475 7.05308 11.1424 7.05327H11.5554C11.9083 7.05307 12.257 7.12984 12.5773 7.27824C12.8976 7.42664 13.1817 7.6431 13.4099 7.91257L14.7623 9.48524C14.8803 9.62703 15.0432 9.72427 15.2239 9.76086L16.7869 10.0689C16.8811 10.0881 16.9655 10.1402 17.0248 10.216C17.0842 10.2917 17.1146 10.3861 17.1108 10.4823ZM9.35267 15.0301V15.1193C9.32824 15.2663 9.2638 15.4038 9.16641 15.5165L6.95559 18.0052C6.8814 18.081 6.83985 18.1828 6.83985 18.2889C6.83985 18.395 6.8814 18.4969 6.95559 18.5727L7.57106 19.1158C7.61064 19.151 7.65686 19.178 7.70701 19.1951C7.75715 19.2121 7.8102 19.219 7.86304 19.2152C7.91587 19.2114 7.96741 19.1971 8.01462 19.1731C8.06183 19.149 8.10376 19.1158 8.13794 19.0753L10.4783 16.4163C10.5259 16.3659 10.5692 16.3117 10.6079 16.2542L9.35267 15.0301ZM12.2518 6.24262C12.5722 6.24262 12.8853 6.14753 13.1517 5.96938C13.418 5.79123 13.6256 5.53801 13.7482 5.24176C13.8708 4.9455 13.9029 4.61951 13.8404 4.30501C13.7779 3.9905 13.6236 3.70162 13.3971 3.47487C13.1706 3.24813 12.882 3.09371 12.5678 3.03115C12.2536 2.9686 11.928 3.0007 11.632 3.12342C11.3361 3.24613 11.0831 3.45394 10.9052 3.72056C10.7272 3.98718 10.6322 4.30064 10.6322 4.62131C10.6322 5.05131 10.8028 5.46369 11.1066 5.76775C11.4103 6.0718 11.8223 6.24262 12.2518 6.24262Z" fill="#4A0A52"/>
</svg>
