<svg width="20" height="20" viewBox="0 0 20 20" fill="none" xmlns="http://www.w3.org/2000/svg">
<path d="M16.4816 3.42107H15.5556V2.10528C15.5556 1.98896 15.5069 1.8774 15.42 1.79515C15.3332 1.7129 15.2155 1.66669 15.0927 1.66669H14.1667C14.044 1.66669 13.9262 1.7129 13.8394 1.79515C13.7526 1.8774 13.7038 1.98896 13.7038 2.10528V3.42107H6.29638V2.10528C6.29638 1.98896 6.2476 1.8774 6.16078 1.79515C6.07396 1.7129 5.9562 1.66669 5.83342 1.66669H4.90749C4.7847 1.66669 4.66695 1.7129 4.58012 1.79515C4.4933 1.8774 4.44453 1.98896 4.44453 2.10528V3.42107H3.5186C3.02746 3.42107 2.55643 3.60591 2.20914 3.93492C1.86185 4.26393 1.66675 4.71017 1.66675 5.17546V16.579C1.66675 17.0443 1.86185 17.4905 2.20914 17.8195C2.55643 18.1485 3.02746 18.3334 3.5186 18.3334H16.4816C16.9727 18.3334 17.4437 18.1485 17.791 17.8195C18.1383 17.4905 18.3334 17.0443 18.3334 16.579V5.17546C18.3334 4.71017 18.1383 4.26393 17.791 3.93492C17.4437 3.60591 16.9727 3.42107 16.4816 3.42107ZM16.4816 16.579H3.5186V6.92985H16.4816V16.579ZM5.83342 13.9474H10.463C10.5858 13.9474 10.7036 13.9012 10.7904 13.8189C10.8772 13.7367 10.926 13.6251 10.926 13.5088V12.6316C10.926 12.5153 10.8772 12.4037 10.7904 12.3215C10.7036 12.2392 10.5858 12.193 10.463 12.193H5.83342C5.71063 12.193 5.59287 12.2392 5.50605 12.3215C5.41923 12.4037 5.37045 12.5153 5.37045 12.6316V13.5088C5.37045 13.6251 5.41923 13.7367 5.50605 13.8189C5.59287 13.9012 5.71063 13.9474 5.83342 13.9474ZM5.83342 10.4386H14.1667C14.2895 10.4386 14.4073 10.3924 14.4941 10.3102C14.5809 10.2279 14.6297 10.1163 14.6297 10V9.12283C14.6297 9.0065 14.5809 8.89495 14.4941 8.81269C14.4073 8.73044 14.2895 8.68423 14.1667 8.68423H5.83342C5.71063 8.68423 5.59287 8.73044 5.50605 8.81269C5.41923 8.89495 5.37045 9.0065 5.37045 9.12283V10C5.37045 10.1163 5.41923 10.2279 5.50605 10.3102C5.59287 10.3924 5.71063 10.4386 5.83342 10.4386Z" fill="#4A0A52"/>
</svg>
