<svg width="20" height="20" viewBox="0 0 20 20" fill="none" xmlns="http://www.w3.org/2000/svg">
<path d="M16.6652 17.4984C16.6655 17.6473 16.626 17.7936 16.5506 17.9219C16.4752 18.0503 16.3668 18.1562 16.2367 18.2285C16.1065 18.3008 15.9594 18.3369 15.8105 18.3331C15.6617 18.3292 15.5166 18.2856 15.3904 18.2067L10.4409 15.107C10.3084 15.0242 10.1554 14.9804 9.99925 14.9804C9.84308 14.9804 9.69006 15.0242 9.55763 15.107L4.60813 18.2067C4.48188 18.2856 4.33679 18.3292 4.18796 18.3331C4.03913 18.3369 3.89199 18.3008 3.76184 18.2285C3.63169 18.1562 3.5233 18.0503 3.44793 17.9219C3.37255 17.7936 3.33296 17.6473 3.33325 17.4984V3.33319C3.33325 2.8912 3.50883 2.46732 3.82136 2.15479C4.13389 1.84226 4.55777 1.66669 4.99975 1.66669H14.9987C15.4407 1.66669 15.8646 1.84226 16.1771 2.15479C16.4897 2.46732 16.6652 2.8912 16.6652 3.33319V17.4984Z" fill="#4A0A52"/>
</svg>
