<svg width="24" height="24" viewBox="0 0 24 24" fill="none" xmlns="http://www.w3.org/2000/svg">
<path d="M20.4435 4.78398L20.2171 4.55729C19.865 4.20252 19.3867 4.00211 18.8872 4H17.4535C15.4549 4.00093 13.5383 4.79583 12.1243 6.21026L10.9735 7.36261L10.6245 7.77822H8.92673C8.63387 7.77822 8.34503 7.8465 8.08309 7.97766C7.82115 8.10881 7.59329 8.29924 7.41758 8.53386L4.11629 12.9449C4.04137 13.0296 4 13.1388 4 13.2519C4 13.365 4.04137 13.4742 4.11629 13.5589L5.39908 14.8435C5.53803 14.9823 5.7043 15.0906 5.8873 15.1615C6.07031 15.2325 6.26605 15.2645 6.4621 15.2556C6.65814 15.2468 6.85019 15.1971 7.02605 15.1099C7.20191 15.0227 7.35773 14.8998 7.4836 14.749L7.56849 14.6451L10.3227 17.4032L10.2189 17.4882C10.0684 17.6143 9.94567 17.7703 9.85857 17.9464C9.77148 18.1225 9.72192 18.3149 9.71305 18.5112C9.70418 18.7075 9.73619 18.9035 9.80704 19.0868C9.8779 19.2701 9.98605 19.4366 10.1246 19.5757L11.4074 20.8603C11.492 20.9353 11.601 20.9768 11.714 20.9768C11.8269 20.9768 11.936 20.9353 12.0205 20.8603L16.4254 17.5544C16.6597 17.3784 16.8498 17.1502 16.9808 16.8879C17.1118 16.6256 17.1799 16.3363 17.1799 16.0431V14.4373L17.595 14.0406L18.7457 12.8883C19.4536 12.191 20.0171 11.3607 20.404 10.4449C20.7908 9.52909 20.9934 8.54585 21 7.55153V6.1158C20.9979 5.61559 20.7978 5.13663 20.4435 4.78398ZM15.7274 9.28006C15.9923 9.54381 16.1731 9.88039 16.2468 10.2472C16.3205 10.6139 16.2838 10.9943 16.1414 11.3402C15.9989 11.686 15.7571 11.9817 15.4467 12.1898C15.1362 12.3979 14.771 12.5089 14.3974 12.5089C14.0238 12.5089 13.6587 12.3979 13.3482 12.1898C13.0377 11.9817 12.796 11.686 12.6535 11.3402C12.5111 10.9943 12.4744 10.6139 12.5481 10.2472C12.6218 9.88039 12.8025 9.54381 13.0675 9.28006C13.4209 8.92821 13.8991 8.73072 14.3974 8.73072C14.8958 8.73072 15.3739 8.92821 15.7274 9.28006ZM7.99294 17.696C8.03806 17.7384 8.07401 17.7897 8.0986 17.8465C8.12318 17.9034 8.13586 17.9647 8.13586 18.0266C8.13586 18.0886 8.12318 18.1499 8.0986 18.2068C8.07401 18.2636 8.03806 18.3148 7.99294 18.3572L5.4934 20.8603C5.44956 20.9046 5.3974 20.9397 5.33992 20.9637C5.28245 20.9877 5.22081 21 5.15855 21C5.0963 21 5.03465 20.9877 4.97718 20.9637C4.91971 20.9397 4.86755 20.9046 4.82371 20.8603L4.16345 20.1991C4.11925 20.1552 4.08416 20.103 4.06022 20.0454C4.03628 19.9879 4.02395 19.9261 4.02395 19.8638C4.02395 19.8014 4.03628 19.7397 4.06022 19.6822C4.08416 19.6246 4.11925 19.5724 4.16345 19.5285L6.663 17.0254C6.70534 16.9802 6.75648 16.9442 6.81326 16.9196C6.87004 16.895 6.93125 16.8823 6.99312 16.8823C7.055 16.8823 7.11621 16.895 7.17299 16.9196C7.22977 16.9442 7.28091 16.9802 7.32325 17.0254L7.99294 17.696Z" fill="#4A0A52"/>
</svg>
