<svg width="16" height="16" viewBox="0 0 16 16" fill="none" xmlns="http://www.w3.org/2000/svg">
<path d="M13.8533 7.52L10.4267 4.1C10.3957 4.06876 10.3588 4.04396 10.3182 4.02704C10.2776 4.01011 10.234 4.0014 10.19 4.0014C10.146 4.0014 10.1024 4.01011 10.0618 4.02704C10.0212 4.04396 9.98432 4.06876 9.95333 4.1L9.48 4.57333C9.44896 4.60375 9.4243 4.64005 9.40746 4.68012C9.39062 4.72018 9.38195 4.76321 9.38195 4.80667C9.38195 4.85013 9.39062 4.89315 9.40746 4.93321C9.4243 4.97328 9.44896 5.00958 9.48 5.04L11.78 7.33333H5C4.91159 7.33333 4.82681 7.36845 4.7643 7.43096C4.70179 7.49348 4.66667 7.57826 4.66667 7.66667V8.33333C4.66667 8.42174 4.70179 8.50652 4.7643 8.56904C4.82681 8.63155 4.91159 8.66667 5 8.66667H11.78L9.48 10.96C9.44876 10.991 9.42396 11.0279 9.40704 11.0685C9.39011 11.1091 9.3814 11.1527 9.3814 11.1967C9.3814 11.2407 9.39011 11.2842 9.40704 11.3249C9.42396 11.3655 9.44876 11.4023 9.48 11.4333L9.95333 11.9C9.98432 11.9312 10.0212 11.956 10.0618 11.973C10.1024 11.9899 10.146 11.9986 10.19 11.9986C10.234 11.9986 10.2776 11.9899 10.3182 11.973C10.3588 11.956 10.3957 11.9312 10.4267 11.9L13.8533 8.48C13.9471 8.38632 13.9999 8.25923 14 8.12667V7.87333C13.9985 7.74106 13.9459 7.61448 13.8533 7.52ZM7 12.6667H3.33333V3.33333H7C7.08841 3.33333 7.17319 3.29821 7.2357 3.2357C7.29821 3.17319 7.33333 3.08841 7.33333 3V2.33333C7.33333 2.24493 7.29821 2.16014 7.2357 2.09763C7.17319 2.03512 7.08841 2 7 2H3.33333C2.97971 2 2.64057 2.14048 2.39052 2.39052C2.14048 2.64057 2 2.97971 2 3.33333V12.6667C2 13.0203 2.14048 13.3594 2.39052 13.6095C2.64057 13.8595 2.97971 14 3.33333 14H7C7.08841 14 7.17319 13.9649 7.2357 13.9024C7.29821 13.8399 7.33333 13.7551 7.33333 13.6667V13C7.33333 12.9116 7.29821 12.8268 7.2357 12.7643C7.17319 12.7018 7.08841 12.6667 7 12.6667Z" fill="white"/>
</svg>
