<svg width="20" height="20" viewBox="0 0 20 20" fill="none" xmlns="http://www.w3.org/2000/svg">
<path d="M8.33275 7.91782C8.33275 7.50565 8.21052 7.10274 7.98154 6.76004C7.75255 6.41733 7.42708 6.15022 7.04628 5.99249C6.66549 5.83476 6.24647 5.79349 5.84222 5.8739C5.43797 5.95431 5.06665 6.15279 4.7752 6.44424C4.48375 6.73569 4.28527 7.10701 4.20486 7.51126C4.12445 7.91551 4.16572 8.33453 4.32345 8.71532C4.48118 9.09612 4.74829 9.42159 5.09099 9.65058C5.4337 9.87957 5.83661 10.0018 6.24878 10.0018C6.80148 10.0018 7.33155 9.78223 7.72237 9.39141C8.11319 9.00059 8.33275 8.47053 8.33275 7.91782ZM12.5007 9.1682C12.0061 9.1682 11.5226 9.02153 11.1113 8.74675C10.7001 8.47196 10.3796 8.0814 10.1903 7.62444C10.001 7.16749 9.95148 6.66467 10.048 6.17957C10.1445 5.69447 10.3826 5.24888 10.7324 4.89914C11.0821 4.54941 11.5277 4.31123 12.0128 4.21474C12.4979 4.11825 13.0007 4.16777 13.4577 4.35705C13.9146 4.54632 14.3052 4.86685 14.58 5.2781C14.8548 5.68935 15.0014 6.17284 15.0014 6.66744C15.0014 7.33069 14.738 7.96676 14.269 8.43575C13.8 8.90473 13.1639 9.1682 12.5007 9.1682ZM7.95763 12.2191C8.16556 11.8026 8.48562 11.4524 8.88178 11.208C9.27793 10.9635 9.73446 10.8345 10.2 10.8354H14.8014C15.2669 10.8345 15.7234 10.9635 16.1196 11.208C16.5157 11.4524 16.8358 11.8026 17.0437 12.2191L18.2441 14.6282C18.308 14.7551 18.3385 14.8962 18.3325 15.0382C18.3266 15.1802 18.2844 15.3183 18.2101 15.4394C18.1358 15.5605 18.0317 15.6606 17.9078 15.7301C17.7839 15.7997 17.6443 15.8365 17.5022 15.8369H7.49916C7.35707 15.8365 7.21744 15.7997 7.09354 15.7301C6.96964 15.6606 6.86558 15.5605 6.79125 15.4394C6.71692 15.3183 6.67478 15.1802 6.66883 15.0382C6.66288 14.8962 6.69333 14.7551 6.75727 14.6282L7.95763 12.2191ZM1.75576 14.6282L2.54766 13.0444C2.75611 12.6307 3.07537 12.2831 3.46983 12.0402C3.86429 11.7973 4.31845 11.6688 4.78167 11.669H6.37382L5.26515 13.8863C5.11441 14.1864 5.02565 14.5137 5.00417 14.8489C4.98269 15.184 5.02892 15.52 5.14011 15.8369H2.49765C2.35555 15.8365 2.21592 15.7997 2.09203 15.7301C1.96813 15.6606 1.86407 15.5605 1.78974 15.4394C1.7154 15.3183 1.67326 15.1802 1.66732 15.0382C1.66137 14.8962 1.69181 14.7551 1.75576 14.6282Z" fill="#4A0A52"/>
</svg>
