<svg width="96" height="25" viewBox="0 0 96 25" fill="none" xmlns="http://www.w3.org/2000/svg">
<path d="M7.57303 0L13.2809 16.8165H13.3483L18.764 0H26.3371V24.4604H21.3034V7.12679H21.236L15.236 24.4604H11.1011L5.10112 7.30665H5.03371V24.4604H0V0H7.57303Z" fill="white"/>
<path d="M72.4045 6.74462V10.0045H68.8539V18.7725C68.8539 19.6043 68.9887 20.1439 69.2584 20.4137C69.5281 20.6835 70.0899 20.8184 70.8988 20.8184C71.1685 20.8184 71.4382 20.7959 71.6854 20.7734C71.9325 20.7509 72.1797 20.706 72.4045 20.661V24.438C72 24.5054 71.5281 24.5504 71.0337 24.5729C70.5393 24.5953 70.0449 24.6178 69.573 24.6178C68.8314 24.6178 68.1123 24.5729 67.4382 24.4604C66.764 24.348 66.1797 24.1682 65.6629 23.8534C65.146 23.5612 64.7415 23.134 64.4494 22.5944C64.1573 22.0549 64 21.3355 64 20.4362V10.0045H61.0562V6.74462H64V1.43886H68.8539V6.74462H72.4045Z" fill="white"/>
<path d="M72.764 11.7581C73.1909 10.6115 73.8202 9.62229 74.6067 8.81294C75.3932 8.00359 76.3595 7.37409 77.4831 6.92445C78.6067 6.47481 79.8651 6.24999 81.2584 6.24999C82.6516 6.24999 83.91 6.47481 85.0336 6.92445C86.1572 7.37409 87.1235 8.00359 87.9325 8.81294C88.7415 9.62229 89.3482 10.6115 89.7752 11.7581C90.2022 12.9047 90.4269 14.1861 90.4269 15.6025C90.4269 17.0189 90.2022 18.3004 89.7752 19.4469C89.3482 20.5935 88.719 21.5602 87.9325 22.3696C87.1235 23.1789 86.1797 23.8084 85.0336 24.2356C83.91 24.6628 82.6516 24.8876 81.2584 24.8876C79.8651 24.8876 78.6067 24.6628 77.4831 24.2356C76.3595 23.8084 75.4157 23.1789 74.6067 22.3696C73.7977 21.5602 73.1909 20.5935 72.764 19.4469C72.337 18.3004 72.1123 17.0189 72.1123 15.6025C72.1348 14.2086 72.337 12.9271 72.764 11.7581ZM77.1909 17.6933C77.3258 18.3678 77.5505 18.9748 77.8876 19.5144C78.2247 20.0539 78.6516 20.4811 79.2134 20.7959C79.7527 21.1106 80.4494 21.268 81.2584 21.268C82.0674 21.268 82.764 21.1106 83.3258 20.7959C83.8876 20.4811 84.337 20.0539 84.6516 19.5144C84.9887 18.9748 85.2134 18.3678 85.3482 17.6933C85.4831 17.0189 85.5505 16.3219 85.5505 15.625C85.5505 14.928 85.4831 14.2311 85.3482 13.5342C85.2134 12.8597 84.9887 12.2527 84.6516 11.7131C84.3145 11.196 83.8651 10.7689 83.3258 10.4316C82.764 10.0944 82.0674 9.93704 81.2584 9.93704C80.4269 9.93704 79.7527 10.0944 79.2134 10.4316C78.6741 10.7689 78.2247 11.196 77.8876 11.7131C77.5505 12.2302 77.3258 12.8372 77.1909 13.5342C77.0561 14.2086 76.9887 14.9056 76.9887 15.625C76.9887 16.3219 77.0561 17.0189 77.1909 17.6933Z" fill="white"/>
<path d="M40.0449 18.8399C39.8202 19.4469 39.3483 20.0764 38.6966 20.5486C38 21.0432 37.146 21.2905 36.1573 21.2905C34.7865 21.2905 33.7303 20.9308 33.0112 20.2338C32.2696 19.5369 31.8876 18.3903 31.8202 16.8165H44.5842C44.6741 15.4451 44.5618 14.1412 44.2472 12.8822C43.9325 11.6232 43.4157 10.4991 42.6966 9.53238C41.9775 8.54317 41.0561 7.77878 39.9325 7.19425C38.8089 6.60971 37.5056 6.31745 36 6.31745C34.6516 6.31745 33.4382 6.56475 32.3146 7.03687C31.2134 7.50899 30.2472 8.18345 29.4606 9.01529C28.6516 9.84712 28.0449 10.8363 27.6179 11.9829C27.191 13.1295 26.9662 14.366 26.9662 15.6924C26.9662 17.0639 27.1685 18.3228 27.5955 19.4694C28.0224 20.616 28.6067 21.5827 29.3932 22.4146C30.1797 23.2464 31.1236 23.8759 32.2247 24.3255C33.3483 24.7752 34.6067 25 36 25C38 25 39.7303 24.5504 41.146 23.6286C42.5393 22.7293 43.8427 20.9532 44.337 18.9299L40.0449 18.8399ZM32.0224 12.545C32.1573 12.1178 32.3595 11.6906 32.6741 11.3085C32.9887 10.9263 33.3932 10.589 33.9101 10.3417C34.4269 10.0719 35.0786 9.93705 35.8427 9.93705C37.0337 9.93705 37.9101 10.2518 38.4943 10.9038C39.0786 11.5333 39.4831 12.4775 39.7078 13.714H31.7977C31.8202 13.3543 31.9101 12.9721 32.0224 12.545Z" fill="white"/>
<path d="M60.719 16.7042C60.4044 16.1421 59.9774 15.67 59.4606 15.3103C58.9437 14.9281 58.337 14.6358 57.6628 14.411C56.9887 14.1862 56.292 13.9838 55.5954 13.8265C54.9212 13.6691 54.2471 13.5117 53.5729 13.3768C52.8988 13.2419 52.3145 13.0846 51.8201 12.9047C51.3033 12.7248 50.8988 12.5 50.5617 12.2302C50.2471 11.9605 50.0898 11.6007 50.0898 11.1736C50.0898 10.8139 50.1797 10.5216 50.3594 10.2968C50.5392 10.072 50.7639 9.91459 51.0336 9.80218C51.3033 9.68977 51.5954 9.62232 51.91 9.57736C52.2246 9.5324 52.5167 9.5324 52.8089 9.5324C53.6853 9.5324 54.4269 9.68977 55.0785 10.027C55.7078 10.3642 56.0673 10.9937 56.1347 11.938H60.7639C60.674 10.8364 60.4044 9.93707 59.9325 9.21765C59.4606 8.49823 58.8763 7.91369 58.1797 7.48653C57.483 7.05938 56.674 6.74463 55.7752 6.56477C54.8763 6.38491 53.9325 6.29499 52.9887 6.29499C52.0448 6.29499 51.101 6.38491 50.1797 6.54229C49.2583 6.72215 48.4493 7.01441 47.7078 7.44157C46.9662 7.86873 46.3819 8.43078 45.9549 9.17268C45.5055 9.91459 45.2808 10.8364 45.2808 11.9829C45.2808 12.7698 45.4381 13.4218 45.7527 13.9614C46.0673 14.5009 46.4943 14.9506 47.0111 15.2878C47.528 15.6475 48.1347 15.9173 48.8089 16.1421C49.483 16.3669 50.1797 16.5468 50.8763 16.7042C52.6066 17.0639 53.9549 17.4461 54.9437 17.8058C55.9325 18.1655 56.4044 18.7275 56.4044 19.447C56.4044 19.8741 56.292 20.2338 56.0898 20.5261C55.8875 20.8184 55.6179 21.0432 55.3257 21.2006C55.0111 21.3804 54.674 21.4928 54.292 21.5828C53.91 21.6727 53.5504 21.6952 53.2134 21.6952C52.7415 21.6952 52.2696 21.6502 51.8201 21.5153C51.3707 21.4029 50.9887 21.223 50.6291 20.9757C50.292 20.7284 49.9999 20.4362 49.7976 20.054C49.5954 19.7168 49.5055 19.2896 49.483 18.84H44.8538C44.9212 19.9641 45.1684 20.9083 45.6403 21.6727C46.1347 22.4596 46.7639 23.0891 47.528 23.5837C48.292 24.0558 49.1684 24.4155 50.1572 24.6178C51.146 24.8202 52.1347 24.9326 53.1684 24.9326C54.1797 24.9326 55.1684 24.8427 56.1347 24.6403C57.101 24.438 57.9774 24.1007 58.719 23.6286C59.4606 23.1565 60.0898 22.5045 60.5617 21.7177C61.0336 20.9308 61.2583 19.9641 61.2583 18.795C61.2134 17.9407 61.0336 17.2662 60.719 16.7042Z" fill="white"/>
<path d="M95.9999 19.1772V24.4605H90.6292V19.1772H95.9999Z" fill="#00FFC2"/>
</svg>
